HIERARCHY
ROOT Hips
{
	OFFSET 0.00000 0.00000 0.00000
	CHANNELS 6 Xposition Yposition Zposition Zrotation Yrotation Xrotation 
	JOINT RightUpLegDummy
	{
		OFFSET 0 0 0
		CHANNELS 3 Zrotation Yrotation Xrotation
		JOINT RightUpLeg
		{
			OFFSET -3.52197 -3.41223 0.04002
			CHANNELS 3 Zrotation Yrotation Xrotation
			JOINT RightLeg
			{
				OFFSET 0.00006 -17.42390 1.60435
				CHANNELS 3 Zrotation Yrotation Xrotation
				JOINT RightFoot
				{
					OFFSET 0.06153 -16.50078 -1.63901
					CHANNELS 3 Zrotation Yrotation Xrotation
					JOINT RightToes
					{
						OFFSET 0.00298 -1.73825 3.34613
						CHANNELS 3 Zrotation Yrotation Xrotation
						End Site
						{
							OFFSET 0.00480 -0.05416 3.85043
						}
					}
				}
			}
		}
	}
	JOINT SpineDummy
	{
		OFFSET 0 0 0
		CHANNELS 3 Zrotation Yrotation Xrotation
		JOINT Spine
		{
			OFFSET 0.00000 4.68130 0.00000
			CHANNELS 3 Zrotation Yrotation Xrotation
			JOINT Spine1
			{
				OFFSET -0.00000 10.10138 0.05002
				CHANNELS 3 Zrotation Yrotation Xrotation
				JOINT HEadDummy
				{
					OFFSET 0 0 0
					CHANNELS 3 Zrotation Yrotation Xrotation
					JOINT Head
					{
						OFFSET -0.00000 3.43865 0.00438
						CHANNELS 3 Zrotation Yrotation Xrotation
						End Site
						{
							OFFSET -0.11417 5.02924 0.98962
						}
					}
				}
				JOINT LeftShoulder1Dummy
				{
					OFFSET 0 0 0
					CHANNELS 3 Zrotation Yrotation Xrotation
					JOINT LeftShoulder1
					{
						OFFSET 3.53937 -0.14262 -0.08662
						CHANNELS 3 Zrotation Yrotation Xrotation
						JOINT LeftArm
						{
							OFFSET 4.04833 -0.00133 0.12681
							CHANNELS 3 Zrotation Yrotation Xrotation
							JOINT LeftForeArm
							{
								OFFSET 10.33880 -0.01036 -0.55515
								CHANNELS 3 Zrotation Yrotation Xrotation
								JOINT LeftHand
								{
									OFFSET 8.69677 0.07543 0.40060
									CHANNELS 3 Zrotation Yrotation Xrotation
									End Site
									{
										OFFSET 5.28377 -0.21905 0.59205
									}
								}
							}
						}
					}
				}
				JOINT RightShoulderDummy
				{
					OFFSET 0 0 0
					CHANNELS 3 Zrotation Yrotation Xrotation
					JOINT RightShoulder
					{
						OFFSET -3.53937 -0.14262 -0.08660
						CHANNELS 3 Zrotation Yrotation Xrotation
						JOINT RightArm
						{
							OFFSET -4.04833 -0.00133 0.12683
							CHANNELS 3 Zrotation Yrotation Xrotation
							JOINT RightForeArm
							{
								OFFSET -10.37987 -0.01039 -0.55511
								CHANNELS 3 Zrotation Yrotation Xrotation
								JOINT RightHand
								{
									OFFSET -8.67398 0.07538 0.40058
									CHANNELS 3 Zrotation Yrotation Xrotation
									End Site
									{
										OFFSET -5.24810 -0.21916 0.59204
									}
								}
							}
						}
					}
				}
			}
		}
	}
	JOINT LeftUpLegDummy
	{
		OFFSET 0 0 0
		CHANNELS 3 Zrotation Yrotation Xrotation
		JOINT LeftUpLeg
		{
			OFFSET 3.52197 -3.41223 0.04002
			CHANNELS 3 Zrotation Yrotation Xrotation
			JOINT LeftLeg
			{
				OFFSET -0.00012 -17.42399 1.60337
				CHANNELS 3 Zrotation Yrotation Xrotation
				JOINT LeftFoot
				{
					OFFSET -0.09972 -16.50070 -1.63802
					CHANNELS 3 Zrotation Yrotation Xrotation
					JOINT LeftToes
					{
						OFFSET -0.01575 -1.73823 3.34611
						CHANNELS 3 Zrotation Yrotation Xrotation
						End Site
						{
							OFFSET 0.03150 -0.01868 3.85031
						}
					}
				}
			}
		}
	}
}
MOTION
Frames: 9
Frame Time: 0.033333
-38.7638 39.9315 59.6710 -179.7810 2.6662 176.2730 0.0000 0.0000 0.0000 2.5908 -1.0701 1.6974 -1.3468 -3.8852 4.5939 -3.4446 0.2148 -3.1771 0.0000 -0.0000 0.0000 0.0000 0.0000 0.0000 0.6463 -0.1606 2.6917 2.5525 -0.7180 2.0975 -0.0000 0.0000 -0.0000 1.5334 -1.1962 -8.8392 -0.0000 0.0000 -0.0000 -34.1115 -2.9567 2.5932 -44.8251 -17.1424 -17.2217 -10.0375 4.9915 52.7164 15.8791 -3.2393 -1.1562 -0.0000 0.0000 -0.0000 35.1758 5.2624 3.6118 39.8016 7.9608 -14.2118 11.6085 -0.6525 23.8949 -13.3436 0.7452 -0.6987 0.0000 0.0000 0.0000 1.9327 1.8399 2.4649 1.7798 4.9474 6.0254 0.7847 -0.0097 -5.2704 0.0000 0.0000 -0.0000
-38.7638 39.9315 59.6805 -179.8090 2.6049 176.2280 0.0000 0.0000 0.0000 2.5598 -1.0946 1.7122 -1.3537 -3.9211 4.6388 -3.4416 0.2147 -3.1918 0.0000 -0.0000 0.0000 0.0000 0.0000 0.0000 0.6278 -0.1819 2.8339 2.5330 -0.7324 2.0043 -0.0000 0.0000 -0.0000 1.6431 -1.3886 -8.8106 -0.0000 0.0000 -0.0000 -34.0615 -2.9443 2.5850 -44.8920 -17.1371 -17.2038 -10.0383 4.9910 52.7843 15.7978 -3.3152 -1.1604 -0.0000 0.0000 -0.0000 35.0473 5.2316 3.5877 39.8511 8.0520 -14.2133 11.6043 -0.7159 24.0919 -12.8753 1.0814 -0.7087 0.0000 0.0000 0.0000 1.9005 1.8136 2.5086 1.7804 4.9206 5.9852 0.7549 -0.0077 -5.2419 0.0000 0.0000 -0.0000
-38.7616 39.9308 59.6948 -179.8440 2.4863 176.1660 0.0000 0.0000 0.0000 2.5223 -1.1227 1.7357 -1.3719 -4.0100 4.6949 -3.4278 0.2139 -3.2226 0.0000 -0.0000 0.0000 0.0000 0.0000 0.0000 0.6588 -0.2280 3.0381 2.4073 -0.7506 1.8552 -0.0000 0.0000 -0.0000 1.8706 -1.6220 -8.7600 -0.0000 0.0000 -0.0000 -33.9330 -2.9273 2.5698 -44.9970 -17.0966 -17.1446 -10.0530 4.9915 52.7624 15.7258 -3.3026 -1.1536 -0.0000 0.0000 -0.0000 34.9530 5.2004 3.5666 39.8334 8.1777 -14.2812 11.5901 -0.9317 24.3897 -12.3868 1.4387 -0.7170 0.0000 0.0000 0.0000 1.8649 1.7870 2.5417 1.7745 4.8458 5.9714 0.7543 -0.0077 -5.2280 0.0000 0.0000 -0.0000
-38.7588 39.9278 59.7052 -179.8600 2.3675 176.1390 0.0000 0.0000 0.0000 2.5064 -1.1339 1.7311 -1.3915 -4.1125 4.7465 -3.4110 0.2129 -3.2625 0.0000 -0.0000 0.0000 0.0000 0.0000 0.0000 0.7220 -0.2669 3.1061 2.2574 -0.7605 1.8062 -0.0000 0.0000 -0.0000 2.0618 -1.6764 -8.6436 -0.0000 0.0000 -0.0000 -33.8136 -2.9296 2.5629 -45.0571 -17.0450 -17.0393 -10.1171 4.9998 52.4752 15.6065 -3.1007 -1.1188 -0.0000 0.0000 -0.0000 35.0330 5.2081 3.5768 39.6487 8.2365 -14.4163 11.5673 -1.2117 24.5555 -12.3760 1.5820 -0.7305 0.0000 0.0000 0.0000 1.8643 1.7919 2.5051 1.7422 4.7303 6.0389 0.7900 -0.0100 -5.2665 0.0000 0.0000 -0.0000
-38.7533 39.9238 59.7115 -179.8580 2.2823 176.1350 0.0000 0.0000 0.0000 2.5178 -1.1256 1.7019 -1.4144 -4.2003 4.8076 -3.3974 0.2122 -3.2969 0.0000 -0.0000 0.0000 0.0000 0.0000 0.0000 0.7495 -0.2719 3.0715 2.2156 -0.7585 1.8293 -0.0000 0.0000 -0.0000 2.0902 -1.6427 -8.4284 -0.0000 0.0000 -0.0000 -33.7945 -2.9517 2.5705 -45.0435 -17.0163 -16.8948 -10.2173 5.0082 52.1710 15.3919 -2.9749 -1.0869 -0.0000 0.0000 -0.0000 35.1448 5.2322 3.5966 39.4239 8.1890 -14.5838 11.5210 -1.3972 24.6609 -12.5660 1.7313 -0.7570 0.0000 0.0000 0.0000 1.9088 1.8432 2.4318 1.6708 4.5882 6.1543 0.8352 -0.0129 -5.3271 0.0000 0.0000 -0.0000
-38.7437 39.9208 59.7185 -179.8620 2.2040 176.1100 0.0000 0.0000 0.0000 2.5326 -1.1186 1.6870 -1.4428 -4.2862 4.8814 -3.3763 0.2109 -3.3231 0.0000 -0.0000 0.0000 0.0000 0.0000 0.0000 0.7113 -0.2501 3.1030 2.2921 -0.7492 1.7769 -0.0000 0.0000 -0.0000 1.9794 -1.7222 -8.1867 -0.0000 0.0000 -0.0000 -33.8757 -2.9757 2.5854 -44.9889 -17.0491 -16.8018 -10.2739 5.0068 52.1918 15.2621 -3.1158 -1.0951 -0.0000 0.0000 -0.0000 35.1051 5.2298 3.5921 39.3320 8.0623 -14.7860 11.4362 -1.4863 24.9229 -12.5364 2.0173 -0.7839 0.0000 0.0000 0.0000 1.9655 1.9164 2.3872 1.5758 4.4337 6.2548 0.8769 -0.0156 -5.3662 0.0000 0.0000 -0.0000
-38.7316 39.9176 59.7276 -179.8880 2.0883 176.0710 0.0000 0.0000 0.0000 2.5127 -1.1507 1.6755 -1.4471 -4.3762 4.9775 -3.3654 0.2103 -3.3662 0.0000 -0.0000 0.0000 0.0000 0.0000 0.0000 0.6281 -0.2258 3.2163 2.4043 -0.7410 1.6417 -0.0000 0.0000 -0.0000 1.8437 -1.8738 -8.0397 -0.0000 0.0000 -0.0000 -33.9863 -2.9965 2.6009 -44.9418 -17.1594 -16.8577 -10.2335 5.0006 52.4056 15.3869 -3.3055 -1.1282 -0.0000 0.0000 -0.0000 34.9497 5.2011 3.5666 39.3602 7.9081 -15.0296 11.3286 -1.5902 25.2830 -12.3651 2.2265 -0.7937 0.0000 0.0000 0.0000 1.9856 1.9516 2.3607 1.5092 4.2886 6.3322 0.9022 -0.0172 -5.3938 0.0000 0.0000 -0.0000
-38.7180 39.9121 59.7361 -179.9210 1.9488 176.0630 0.0000 0.0000 0.0000 2.4597 -1.2258 1.6121 -1.4000 -4.4412 5.1182 -3.4009 0.2128 -3.4457 0.0000 -0.0000 0.0000 0.0000 0.0000 0.0000 0.5301 -0.2098 3.2834 2.5205 -0.7432 1.5615 -0.0000 0.0000 -0.0000 1.7416 -1.9073 -8.0447 -0.0000 0.0000 -0.0000 -34.0814 -3.0230 2.6178 -44.9147 -17.2749 -16.9559 -10.1860 5.0013 52.4016 15.6122 -3.3127 -1.1462 -0.0000 0.0000 -0.0000 34.8300 5.1785 3.5468 39.3948 7.7524 -15.2496 11.2382 -1.6778 25.4515 -12.3192 2.2326 -0.7982 0.0000 0.0000 0.0000 1.9735 1.9322 2.2936 1.4931 4.1640 6.4223 0.8917 -0.0165 -5.4490 0.0000 0.0000 -0.0000
-38.6998 39.9052 59.7426 -179.9380 1.8339 176.0840 0.0000 0.0000 0.0000 2.4228 -1.2947 1.5064 -1.3344 -4.4767 5.2865 -3.4679 0.2174 -3.5361 0.0000 -0.0000 0.0000 0.0000 0.0000 0.0000 0.4201 -0.2042 3.2823 2.6711 -0.7657 1.5833 -0.0000 0.0000 -0.0000 1.6693 -1.8843 -8.1817 -0.0000 0.0000 -0.0000 -34.1727 -3.0543 2.6364 -44.8825 -17.2887 -16.8747 -10.2618 5.0079 52.1624 15.6789 -3.2524 -1.1436 -0.0000 0.0000 -0.0000 34.7831 5.1743 3.5408 39.4034 7.6055 -15.3267 11.2037 -1.6219 25.3501 -12.3454 2.2505 -0.8006 0.0000 0.0000 0.0000 1.9882 1.9225 2.1982 1.4766 4.0330 6.5214 0.8417 -0.0133 -5.5261 0.0000 0.0000 -0.0000
